<svg xmlns="http://www.w3.org/2000/svg" id="Group_52" width="74" height="74" data-name="Group 52" viewBox="0 0 74 74">
    <defs>
        <style>
            .cls-1{fill:#00131d;stroke:rgba(0,0,0,0)}.cls-2{fill:none}
        </style>
    </defs>
    <g id="Group_2385" data-name="Group 2385" transform="translate(18.609 24.753)">
        <path id="Union_10" d="M.232 14.635a1.643 1.643 0 0 1 0-1.683C.56 12.423 8.392 0 18.39 0s17.83 12.423 18.158 12.952a1.631 1.631 0 0 1 0 1.683c-.328.53-8.158 12.952-18.158 12.952S.56 15.165.232 14.635zm2.524-.841c1.89 2.7 8.268 10.941 15.634 10.941 7.382 0 13.75-8.243 15.634-10.941C32.137 11.1 25.756 2.853 18.39 2.853S4.643 11.1 2.756 13.794zm8.478.243a7.159 7.159 0 1 1 7.159 7.156 7.167 7.167 0 0 1-7.159-7.156zm2.386 0a4.773 4.773 0 1 0 4.773-4.773 4.777 4.777 0 0 0-4.773 4.773z" class="cls-1" data-name="Union 10"/>
    </g>
    <path id="Rectangle_2169" d="M0 0h74v74H0z" class="cls-2" data-name="Rectangle 2169"/>
</svg>
